<?xml version="1.0" encoding="utf-8"?>
<!-- Generator: Adobe Illustrator 24.1.2, SVG Export Plug-In . SVG Version: 6.00 Build 0)  -->
<svg version="1.1" id="Ebene_1" xmlns="http://www.w3.org/2000/svg" xmlns:xlink="http://www.w3.org/1999/xlink" x="0px" y="0px"
	 width="78px" height="62px" viewBox="0 0 78 62" style="enable-background:new 0 0 78 62;" xml:space="preserve">
<style type="text/css">
	.st0{fill:#FFFFFF;}
</style>
<g>
	<polygon class="st0" points="0.7,49.1 0.7,43.2 1.5,43.2 1.5,48.4 4.1,48.4 4.1,49.1 0.7,49.1 	"/>
	<path class="st0" d="M6.5,45.4c-0.3,0-0.6,0.1-0.8,0.3c-0.2,0.2-0.3,0.5-0.4,0.8h2.3c0-0.3-0.1-0.5-0.3-0.8
		C7.1,45.6,6.8,45.4,6.5,45.4 M8.3,47.1h-3c0,0.5,0.1,0.9,0.4,1.1c0.2,0.2,0.5,0.3,0.9,0.3c0.4,0,0.8-0.1,1.1-0.4L8,48.7
		c-0.1,0.1-0.3,0.2-0.5,0.3c-0.3,0.1-0.6,0.2-1,0.2c-0.5,0-1-0.2-1.3-0.5c-0.4-0.4-0.6-0.9-0.6-1.6c0-0.7,0.2-1.2,0.6-1.7
		c0.4-0.4,0.8-0.6,1.3-0.6c0.6,0,1.1,0.2,1.4,0.5c0.3,0.3,0.5,0.8,0.5,1.3C8.3,46.8,8.3,46.9,8.3,47.1"/>
	<path class="st0" d="M10,43.3c0.1,0,0.2,0,0.3,0.1c0.1,0.1,0.1,0.2,0.1,0.3c0,0.1,0,0.2-0.1,0.3c-0.1,0.1-0.2,0.1-0.3,0.1
		c-0.1,0-0.2,0-0.3-0.1c-0.1-0.1-0.1-0.2-0.1-0.3c0-0.1,0-0.2,0.1-0.3C9.8,43.4,9.9,43.3,10,43.3 M9.7,49.1v-3.6H9.2v-0.6h1.3v4.2
		H9.7L9.7,49.1z"/>
	<path class="st0" d="M12.7,45.8v2.4c0,0,0.1,0.1,0.3,0.2c0.2,0.1,0.3,0.1,0.4,0.1c0.5,0,0.9-0.1,1.1-0.4c0.2-0.2,0.3-0.7,0.3-1.2
		c0-0.5-0.1-0.8-0.4-1.1c-0.3-0.3-0.6-0.4-1-0.4c-0.1,0-0.2,0-0.4,0.1C12.8,45.7,12.7,45.7,12.7,45.8 M12.6,48.8l-0.3,0.4h-0.4v-6
		h0.7v2.1c0.1-0.1,0.2-0.2,0.4-0.3c0.2-0.1,0.4-0.1,0.6-0.1c0.6,0,1,0.2,1.4,0.6c0.4,0.4,0.5,0.9,0.5,1.5c0,0.7-0.2,1.2-0.5,1.6
		c-0.4,0.4-0.8,0.6-1.5,0.6c-0.2,0-0.4,0-0.6-0.1C12.8,49,12.7,48.9,12.6,48.8"/>
	<path class="st0" d="M19.1,49.1v-2.4c0-0.4-0.1-0.8-0.2-0.9c-0.1-0.2-0.4-0.3-0.7-0.3c-0.2,0-0.3,0.1-0.5,0.2
		c-0.2,0.1-0.3,0.2-0.4,0.4v3.1h-0.7v-4.2h0.5l0.2,0.5c0.2-0.4,0.6-0.6,1.2-0.6c0.9,0,1.4,0.6,1.4,1.7v2.6H19.1L19.1,49.1z"/>
	<path class="st0" d="M21.7,43.3c0.1,0,0.2,0,0.3,0.1c0.1,0.1,0.1,0.2,0.1,0.3c0,0.1,0,0.2-0.1,0.3c-0.1,0.1-0.2,0.1-0.3,0.1
		c-0.1,0-0.2,0-0.3-0.1c-0.1-0.1-0.1-0.2-0.1-0.3c0-0.1,0-0.2,0.1-0.3C21.5,43.4,21.6,43.3,21.7,43.3 M21.4,49.1v-3.6h-0.6v-0.6h1.3
		v4.2H21.4L21.4,49.1z"/>
	<polygon class="st0" points="24.6,48.4 26.9,48.4 26.9,49.1 23.4,49.1 23.4,48.9 25.8,45.6 23.5,45.6 23.5,44.9 26.9,44.9 
		26.9,45.1 24.6,48.4 	"/>
	<path class="st0" d="M45.6,27.1c-0.3,0.5-0.9-0.6-2,0.8c-0.5,0.6-0.2,1.3-0.7,1.9c-0.6,0.7-1.2,1.3-0.7-0.7c0.5-2,0.2-1.2,0.5-2
		c0.3-1,1.2-4.3,1.5-5c0.4-1,0.6-1.4,1.8-3.2c0,0,0.8-1.1,1-1.2c0.7-0.7,3.1-1.8,1.9,2.6C47.9,23.8,47.2,24.6,45.6,27.1 M45.8,32.2
		c-0.4,1.6-1.1,4-1.7,4.8c-0.4,0.5-1.4,2.1-2.2-0.6c-0.8-2.7,1.1-5,1.1-5s0.8-1.1,1.3-1.1C44.9,30.4,46.2,30.6,45.8,32.2 M4.1,31.6
		c-0.4,0.2-1.6-0.8-1.6-1.4c0.1-1.1,1.2,0,2.5,0C6.3,30.2,4.6,31.4,4.1,31.6 M23.9,9.8c1.3-1.2,2.2-2.2,3.1-3
		c3.9-3.6,3.8-3.3,4.4-3.7c1-0.7,3.4-2,4.1-1.3c0.8,0.7,0.5,2.2-0.8,3.6c-1.3,1.4-5,5.1-8.2,6.9C24.3,13.5,15.6,17.9,23.9,9.8
		 M57.5,34.5c0.4,0.5,1.4,1.4,3.8-0.9c2.4-2.3,1.2-1.3,2.5,1.6c1.4,2.9,2.2,1.3,2.2,0.7c0.2-1.5-0.3-4.3-0.6-5.4
		c-0.3-1-2-1.4-2.6-0.9c-0.6,0.5-2.3,2.4-3.4,2.7c-1.1,0.4-0.2-0.7-0.6-2.5c-0.3-1.8-1-2.6-1.7-2.3c-0.5,0.2-1.5,1.2-2,1
		c-1.1-0.4-2.6-1.7-5.6-0.2c-5.5,2.8-1.4-2.9-1.4-2.9s4-6.3,1.9-9.6c-2.1-3.2-5.8,2.4-6.7,4.2c-1.2,2.3-2.2,5.5-3.2,10.2
		c-0.6,2.8-4,3.8-4.8,2.7c-0.9-1.2-0.7-5.8-3.9-3.8c-3.2,2-3.1,5.9-5.1,1.5c-2-4.4-4-1.5-4.2-1c-0.4,0.7-0.1,2.1-0.7,2.4
		c-0.6,0.4-1.4-0.9-1.9-1c-0.5-0.2-3.7,2.5-5.1,5.3c-2.1,4-6-4.5-5.7-5.1c0.3-0.5,8-11.3,8.9-12.9c1-1.7,1.7-2.2,2.3-2.3
		c0.6-0.1,7.9-1.9,13.6-7.5C38.4,3.8,38,2.3,37,1c-0.3-0.4-0.7-0.7-1.3-0.9c-2.9-1-9.5,5.2-10.1,5.8c-1,0.9-6.8,7.5-7.2,8.3
		c-0.4,0.9-10.6,0.6-10.6,0.6c-1.2,0.6,0.1,1.1,0.1,1.1s4.6,0.6,7.5,0.5c2.5-0.1,1,1.5,0.7,2c-2.1,2.7-5.8,8.5-7.2,10.1
		c-1.3,1.5-3.7,0.1-4.4-0.1c-0.7-0.1-4.5-0.7-3.6,2.5c0.9,3.2,3.8,1.7,5.1,2c0.4,0.1,1.3,0.5,1.5,1C7.9,35,8.5,36.2,9,37.1
		c0.9,1.4,4.6,5,7.2,0.1c2.8-5.4,4.8-3.4,5-0.5c0.2,2.9,1.1,1.8,2.2,1.3c1-0.5,0.1-2.5,0.2-5.1c0.1-2.6,2.5,1.3,2.5,2.4
		c0,0.8,1.4,0.9,2.9,0.3c1.4-0.6,0-1.7,2-3.6c2-1.9,2.3,2.4,2.8,3.4c0.4,0.9,2.3,2.4,3.5,0.2c1-1.9,3.1-1.3,3.1,1.5
		c0,2.3,1.7,2.8,2.4,2.8c0.2,0,0.5,0,0.9-0.2c1.3-0.5,3.3-3.3,3.3-5.8c0-4.2,6.7-4.8,6.3-3.4c-0.4,1-1.9,4,0,4
		c1.8-0.1,1.1-1.6,2.7-3.4C57.5,29.1,56.8,33.7,57.5,34.5"/>
	<path class="st0" d="M35,18.8c-0.2,2.6,1.4,1.7,1.4,1.7c2.9-1.6,0.6-2.9,0.6-2.9S35.2,16.2,35,18.8"/>
	<path class="st0" d="M71.9,48.4c0,0-3.1,6.4-3.5,7c-0.5,0.7-2.9,4.1-6.4,4.6c-3.6,0.5-5.4-0.9-5.4-2.7c-0.1-1.7,1.1-2.8,5-4.7
		c8.8-4.3,9.2-4.5,9.2-4.5C71.5,47.9,72.7,47.1,71.9,48.4 M72.6,32.7c0,0,0,0.1,0,0.1L72.6,32.7L72.6,32.7z M77.9,42.7
		c-0.2-0.4-0.6-0.9-1.8,0.6c-1.8,2.3-1.6,0.9-1.8-0.6c0-0.2-0.2-1.4-1.1-1.9c-0.8-0.4-3.9-1.4-3.1-2.1c1.9-1.5,1.9-1.4,2.4-2
		c0.7-0.8,2.9-3.6,2.7-6.4c-0.2-3.3-4.9-2.9-4.9-2.9c-3.2,0.5-1.8,3.3,0.5,3c2.5-0.4,1.9,1.8,1.7,2.3c0,0-0.3,0.7-0.8,1.5
		c-0.7,1.1-1.8,2.6-2.4,3.3c-0.4,0.5-2.9,2.1-1.1,2.9c2.9,1.4,5.2,4.8,3.7,5.7c-1,0.7-9.4,4.5-11.3,5.3c-1.8,0.8-5.8,2.3-5.8,6.1
		c0,4.2,5.8,4.2,7.1,3.9c3.7-0.6,5.6-2.6,7-4.3c1.2-1.4,3.9-7.2,4.3-8.3c0.3-0.9,1.4-4.1,2.9-4.6C77.9,44,78.1,43.3,77.9,42.7"/>
	<path class="st0" d="M69.3,20.1C68.6,19.8,66.3,21,67,23C67.7,25,72.9,21.5,69.3,20.1"/>
	<path class="st0" d="M2.6,53.2l-1,2.5h1.8L2.6,53.2L2.6,53.2z M4.1,57.7l-0.4-1.3H1.4l-0.5,1.3H0l2.4-6h0.4l2.2,6H4.1L4.1,57.7z"/>
	<path class="st0" d="M6.1,57.4l0.3-0.7c0.4,0.3,0.8,0.4,1,0.4c0.5,0,0.7-0.2,0.7-0.6c0-0.3-0.2-0.5-0.7-0.7
		c-0.3-0.2-0.6-0.3-0.7-0.4c-0.1-0.1-0.2-0.2-0.3-0.3c-0.1-0.1-0.2-0.2-0.2-0.3c0-0.1-0.1-0.2-0.1-0.4c0-0.3,0.1-0.6,0.4-0.8
		c0.3-0.2,0.6-0.3,1-0.3c0.3,0,0.7,0.1,1.2,0.3l-0.2,0.7C8.1,54.1,7.8,54,7.5,54c-0.2,0-0.3,0-0.5,0.1c-0.1,0.1-0.2,0.2-0.2,0.3
		c0,0.3,0.2,0.5,0.5,0.6l0.5,0.2c0.3,0.1,0.6,0.3,0.7,0.5c0.2,0.2,0.2,0.4,0.2,0.7c0,0.4-0.1,0.7-0.4,0.9c-0.3,0.2-0.6,0.3-1.1,0.3
		C6.9,57.7,6.5,57.6,6.1,57.4"/>
	<path class="st0" d="M9.8,57.4l0.3-0.7c0.4,0.3,0.8,0.4,1,0.4c0.5,0,0.7-0.2,0.7-0.6c0-0.3-0.2-0.5-0.7-0.7
		c-0.3-0.2-0.6-0.3-0.7-0.4c-0.1-0.1-0.2-0.2-0.3-0.3C10,55.1,10,55,9.9,54.8c0-0.1-0.1-0.2-0.1-0.4c0-0.3,0.1-0.6,0.4-0.8
		c0.3-0.2,0.6-0.3,1-0.3c0.3,0,0.7,0.1,1.2,0.3l-0.2,0.7c-0.3-0.2-0.6-0.4-0.9-0.4c-0.2,0-0.3,0-0.5,0.1c-0.1,0.1-0.2,0.2-0.2,0.3
		c0,0.3,0.2,0.5,0.5,0.6l0.5,0.2c0.3,0.1,0.6,0.3,0.7,0.5c0.2,0.2,0.2,0.4,0.2,0.7c0,0.4-0.1,0.7-0.4,0.9c-0.3,0.2-0.6,0.3-1.1,0.3
		C10.6,57.7,10.2,57.6,9.8,57.4"/>
	<path class="st0" d="M14.3,55.5c0,1.1,0.4,1.6,1.1,1.6c0.4,0,0.6-0.1,0.8-0.4c0.2-0.3,0.3-0.7,0.3-1.2c0-1-0.4-1.6-1.1-1.6
		c-0.3,0-0.6,0.1-0.8,0.4C14.4,54.7,14.3,55.1,14.3,55.5 M13.6,55.5c0-0.7,0.2-1.2,0.5-1.6c0.4-0.4,0.8-0.6,1.4-0.6
		c0.6,0,1.1,0.2,1.4,0.6c0.3,0.4,0.5,0.9,0.5,1.6c0,0.7-0.2,1.2-0.5,1.6c-0.3,0.4-0.8,0.6-1.4,0.6c-0.6,0-1.1-0.2-1.4-0.6
		C13.7,56.7,13.6,56.2,13.6,55.5"/>
	<path class="st0" d="M21.9,53.8l-0.4,0.5c-0.1-0.1-0.2-0.1-0.4-0.2C20.9,54,20.7,54,20.5,54c-0.4,0-0.7,0.1-1,0.4
		c-0.2,0.3-0.4,0.7-0.4,1.2c0,0.5,0.1,0.9,0.4,1.1c0.2,0.3,0.6,0.4,1,0.4c0.3,0,0.7-0.1,1-0.4l0.3,0.6c-0.4,0.3-0.9,0.4-1.5,0.4
		c-0.6,0-1.1-0.2-1.4-0.6c-0.4-0.4-0.6-0.9-0.6-1.6c0-0.7,0.2-1.2,0.6-1.6c0.4-0.4,0.9-0.6,1.6-0.6c0.2,0,0.5,0,0.7,0.1
		C21.6,53.6,21.8,53.7,21.9,53.8"/>
	<path class="st0" d="M23.8,51.9c0.1,0,0.2,0,0.3,0.1c0.1,0.1,0.1,0.2,0.1,0.3c0,0.1,0,0.2-0.1,0.3c-0.1,0.1-0.2,0.1-0.3,0.1
		c-0.1,0-0.2,0-0.3-0.1c-0.1-0.1-0.1-0.2-0.1-0.3c0-0.1,0-0.2,0.1-0.3C23.6,51.9,23.7,51.9,23.8,51.9 M23.5,57.7v-3.6h-0.6v-0.6h1.3
		v4.2H23.5L23.5,57.7z"/>
	<path class="st0" d="M28.2,55.6c-0.2-0.1-0.4-0.1-0.5-0.1c-0.4,0-0.7,0.1-0.9,0.3c-0.2,0.2-0.4,0.4-0.4,0.7c0,0.4,0.3,0.7,0.8,0.7
		c0.4,0,0.7-0.2,1-0.5V55.6L28.2,55.6z M28.2,57.2c-0.3,0.4-0.8,0.6-1.4,0.6c-0.3,0-0.6-0.1-0.9-0.4c-0.2-0.2-0.4-0.5-0.4-0.9
		c0-0.4,0.2-0.8,0.6-1.1c0.4-0.3,0.9-0.4,1.4-0.4c0.2,0,0.3,0,0.5,0.1c0-0.7-0.3-1-0.9-1c-0.5,0-0.8,0.1-1.1,0.4l-0.3-0.6
		c0.1-0.1,0.3-0.2,0.6-0.3c0.3-0.1,0.5-0.1,0.7-0.1c0.6,0,1.1,0.1,1.3,0.4c0.3,0.3,0.4,0.7,0.4,1.3v1.5c0,0.4,0.1,0.6,0.3,0.7v0.4
		c-0.3,0-0.5,0-0.7-0.1C28.4,57.5,28.3,57.4,28.2,57.2"/>
	<path class="st0" d="M30.5,54h-0.5v-0.6h0.5v-0.9l0.7-0.3v1.2h1.2V54h-1.2v2.1c0,0.4,0.1,0.6,0.2,0.8c0.1,0.1,0.3,0.2,0.6,0.2
		c0.2,0,0.4,0,0.6-0.1l0.1,0.7c-0.3,0.1-0.6,0.1-1,0.1c-0.3,0-0.6-0.1-0.8-0.4c-0.2-0.2-0.3-0.6-0.3-0.9V54L30.5,54z"/>
	<path class="st0" d="M34.6,51.9c0.1,0,0.2,0,0.3,0.1c0.1,0.1,0.1,0.2,0.1,0.3c0,0.1,0,0.2-0.1,0.3c-0.1,0.1-0.2,0.1-0.3,0.1
		c-0.1,0-0.2,0-0.3-0.1c-0.1-0.1-0.1-0.2-0.1-0.3c0-0.1,0-0.2,0.1-0.3C34.3,51.9,34.4,51.9,34.6,51.9 M34.3,57.7v-3.6h-0.6v-0.6H35
		v4.2H34.3L34.3,57.7z"/>
	<path class="st0" d="M37.1,55.5c0,1.1,0.4,1.6,1.2,1.6c0.4,0,0.6-0.1,0.8-0.4c0.2-0.3,0.3-0.7,0.3-1.2c0-1-0.4-1.6-1.2-1.6
		c-0.4,0-0.6,0.1-0.8,0.4C37.2,54.7,37.1,55.1,37.1,55.5 M36.3,55.5c0-0.7,0.2-1.2,0.5-1.6c0.4-0.4,0.8-0.6,1.4-0.6
		c0.6,0,1.1,0.2,1.5,0.6c0.3,0.4,0.5,0.9,0.5,1.6c0,0.7-0.2,1.2-0.5,1.6c-0.4,0.4-0.8,0.6-1.4,0.6c-0.6,0-1.1-0.2-1.5-0.6
		C36.5,56.7,36.3,56.2,36.3,55.5"/>
	<path class="st0" d="M43.9,57.7v-2.5c0-0.4-0.1-0.8-0.2-0.9C43.6,54.1,43.3,54,43,54c-0.2,0-0.3,0.1-0.5,0.2
		c-0.2,0.1-0.3,0.2-0.4,0.4v3.1h-0.7v-4.2h0.5l0.2,0.5c0.2-0.4,0.6-0.6,1.2-0.6c0.9,0,1.4,0.6,1.4,1.7v2.6H43.9L43.9,57.7z"/>
</g>
</svg>
