<?xml version="1.0" encoding="utf-8"?>
<!-- Generator: Adobe Illustrator 24.1.2, SVG Export Plug-In . SVG Version: 6.00 Build 0)  -->
<svg version="1.1" id="Ebene_1" xmlns="http://www.w3.org/2000/svg" xmlns:xlink="http://www.w3.org/1999/xlink" x="0px" y="0px"
	 width="78px" height="62px" viewBox="0 0 78 62" style="enable-background:new 0 0 78 62;" xml:space="preserve">
<style type="text/css">
	.st0{fill:#FFFFFF;}
</style>
<g>
	<polygon class="st0" points="0.4,49.3 0.4,43.3 1.2,43.3 1.2,48.6 3.8,48.6 3.8,49.3 0.4,49.3 	"/>
	<path class="st0" d="M8,47.2H5c0,0.5,0.1,0.9,0.4,1.1c0.2,0.2,0.5,0.3,0.9,0.3c0.4,0,0.8-0.1,1.1-0.4l0.3,0.5
		c-0.1,0.1-0.3,0.2-0.5,0.3c-0.3,0.1-0.6,0.2-1,0.2c-0.5,0-1-0.2-1.3-0.5c-0.4-0.4-0.6-0.9-0.6-1.6c0-0.7,0.2-1.2,0.6-1.7
		C5.2,45.2,5.7,45,6.2,45c0.6,0,1.1,0.2,1.4,0.5c0.3,0.3,0.5,0.8,0.5,1.3C8.1,46.9,8.1,47.1,8,47.2L8,47.2z M6.2,45.6
		c-0.3,0-0.6,0.1-0.8,0.3C5.2,46.1,5,46.4,5,46.7h2.3c0-0.3-0.1-0.6-0.3-0.8C6.9,45.7,6.6,45.6,6.2,45.6L6.2,45.6z"/>
	<path class="st0" d="M9.5,49.3v-3.6H8.9v-0.6h1.3v4.2H9.5L9.5,49.3z M9.8,43.5c0.1,0,0.2,0,0.3,0.1c0.1,0.1,0.1,0.2,0.1,0.3
		c0,0.1,0,0.2-0.1,0.3c-0.1,0.1-0.2,0.1-0.3,0.1c-0.1,0-0.2,0-0.3-0.1c-0.1-0.1-0.1-0.2-0.1-0.3c0-0.1,0-0.2,0.1-0.3
		C9.5,43.5,9.7,43.5,9.8,43.5L9.8,43.5z"/>
	<path class="st0" d="M12.3,49L12,49.4h-0.4v-6h0.7v2.1c0.1-0.1,0.2-0.2,0.4-0.3C13,45,13.2,45,13.4,45c0.6,0,1,0.2,1.4,0.6
		c0.4,0.4,0.5,0.9,0.5,1.5c0,0.7-0.2,1.3-0.5,1.7c-0.4,0.4-0.8,0.6-1.5,0.6c-0.2,0-0.4,0-0.6-0.1C12.6,49.2,12.4,49.1,12.3,49
		L12.3,49z M12.4,46v2.4c0,0,0.1,0.1,0.3,0.2c0.2,0.1,0.3,0.1,0.4,0.1c0.5,0,0.9-0.1,1.1-0.4c0.2-0.2,0.3-0.7,0.3-1.2
		c0-0.5-0.1-0.8-0.4-1.1c-0.3-0.3-0.6-0.4-1-0.4c-0.1,0-0.2,0-0.4,0.1C12.6,45.8,12.5,45.9,12.4,46L12.4,46z"/>
	<path class="st0" d="M18.9,49.3v-2.4c0-0.4-0.1-0.8-0.2-0.9c-0.1-0.2-0.4-0.3-0.7-0.3c-0.2,0-0.3,0.1-0.5,0.2
		c-0.2,0.1-0.3,0.2-0.4,0.4v3.1h-0.7v-4.2h0.5l0.2,0.5c0.2-0.4,0.6-0.6,1.2-0.6c0.9,0,1.4,0.6,1.4,1.7v2.6H18.9L18.9,49.3z"/>
	<path class="st0" d="M21.2,49.3v-3.6h-0.6v-0.6H22v4.2H21.2L21.2,49.3z M21.5,43.5c0.1,0,0.2,0,0.3,0.1c0.1,0.1,0.1,0.2,0.1,0.3
		c0,0.1,0,0.2-0.1,0.3c-0.1,0.1-0.2,0.1-0.3,0.1c-0.1,0-0.2,0-0.3-0.1c-0.1-0.1-0.1-0.2-0.1-0.3c0-0.1,0-0.2,0.1-0.3
		C21.3,43.5,21.4,43.5,21.5,43.5L21.5,43.5z"/>
	<polygon class="st0" points="24.4,48.6 26.7,48.6 26.7,49.3 23.2,49.3 23.2,49.1 25.6,45.8 23.3,45.8 23.3,45.1 26.7,45.1 
		26.7,45.3 24.4,48.6 	"/>
	<path class="st0" d="M4.3,52.4l-0.3,0.6c-0.4-0.3-0.8-0.4-1.2-0.4c-0.6,0-1.1,0.2-1.4,0.6c-0.3,0.4-0.5,1-0.5,1.7
		c0,0.7,0.2,1.2,0.5,1.6c0.3,0.4,0.8,0.6,1.4,0.6c0.4,0,0.8-0.1,1-0.4v-1.3H3v-0.7h1.6v2.5c-0.2,0.2-0.5,0.3-0.9,0.4
		c-0.4,0.1-0.7,0.2-1.1,0.2c-0.8,0-1.4-0.3-1.9-0.8C0.2,56.5,0,55.8,0,54.9c0-0.9,0.3-1.6,0.8-2.2c0.5-0.6,1.2-0.8,2-0.8
		C3.4,51.9,3.9,52.1,4.3,52.4L4.3,52.4z"/>
	<path class="st0" d="M9.4,55.7h-3c0,0.5,0.1,0.9,0.4,1.1c0.2,0.2,0.5,0.3,0.9,0.3c0.4,0,0.8-0.1,1.1-0.4l0.3,0.5
		c-0.1,0.1-0.3,0.2-0.5,0.3c-0.3,0.1-0.6,0.2-1,0.2c-0.5,0-1-0.2-1.3-0.5c-0.4-0.4-0.6-0.9-0.6-1.6c0-0.7,0.2-1.2,0.6-1.7
		c0.4-0.4,0.8-0.6,1.3-0.6c0.6,0,1.1,0.2,1.4,0.5c0.3,0.3,0.5,0.8,0.5,1.3C9.5,55.5,9.5,55.6,9.4,55.7L9.4,55.7z M7.6,54.1
		c-0.3,0-0.6,0.1-0.8,0.3c-0.2,0.2-0.3,0.5-0.4,0.8h2.3c0-0.3-0.1-0.6-0.3-0.8C8.3,54.2,8,54.1,7.6,54.1L7.6,54.1z"/>
	<path class="st0" d="M15.3,57.8v-2.7c0-0.7-0.3-1-0.9-1c-0.2,0-0.3,0.1-0.5,0.2c-0.2,0.1-0.3,0.2-0.3,0.4v3.1h-0.7v-3
		c0-0.2-0.1-0.4-0.2-0.5c-0.2-0.1-0.4-0.2-0.6-0.2c-0.1,0-0.3,0.1-0.5,0.2c-0.2,0.1-0.3,0.2-0.4,0.4v3.1h-0.7v-4.2h0.5l0.2,0.5
		c0.3-0.4,0.6-0.6,1.1-0.6c0.6,0,1,0.2,1.3,0.6c0.1-0.2,0.2-0.3,0.5-0.4c0.2-0.1,0.5-0.2,0.7-0.2c0.4,0,0.8,0.1,1,0.4
		c0.2,0.3,0.4,0.6,0.4,1.1v2.8H15.3L15.3,57.8z"/>
	<path class="st0" d="M21,55.7h-3c0,0.5,0.1,0.9,0.4,1.1c0.2,0.2,0.5,0.3,0.9,0.3c0.4,0,0.8-0.1,1.1-0.4l0.3,0.5
		c-0.1,0.1-0.3,0.2-0.5,0.3c-0.3,0.1-0.6,0.2-1,0.2c-0.5,0-1-0.2-1.3-0.5c-0.4-0.4-0.6-0.9-0.6-1.6c0-0.7,0.2-1.2,0.6-1.7
		c0.4-0.4,0.8-0.6,1.3-0.6c0.6,0,1.1,0.2,1.4,0.5c0.3,0.3,0.5,0.8,0.5,1.3C21.1,55.5,21.1,55.6,21,55.7L21,55.7z M19.2,54.1
		c-0.3,0-0.6,0.1-0.8,0.3c-0.2,0.2-0.3,0.5-0.4,0.8h2.3c0-0.3-0.1-0.6-0.3-0.8C19.8,54.2,19.6,54.1,19.2,54.1L19.2,54.1z"/>
	<path class="st0" d="M22.5,57.8v-3.6h-0.6v-0.6h1.3v4.2H22.5L22.5,57.8z M22.8,52c0.1,0,0.2,0,0.3,0.1c0.1,0.1,0.1,0.2,0.1,0.3
		c0,0.1,0,0.2-0.1,0.3c-0.1,0.1-0.2,0.1-0.3,0.1c-0.1,0-0.2,0-0.3-0.1c-0.1-0.1-0.1-0.2-0.1-0.3c0-0.1,0-0.2,0.1-0.3
		C22.6,52,22.7,52,22.8,52L22.8,52z"/>
	<path class="st0" d="M27.4,57.8v-2.4c0-0.4-0.1-0.8-0.2-0.9c-0.1-0.2-0.4-0.3-0.7-0.3c-0.2,0-0.3,0.1-0.5,0.2
		c-0.2,0.1-0.3,0.2-0.4,0.4v3.1h-0.7v-4.2h0.5l0.2,0.5c0.2-0.4,0.6-0.6,1.2-0.6c0.9,0,1.4,0.6,1.4,1.7v2.6H27.4L27.4,57.8z"/>
	<path class="st0" d="M29.4,57.5l0.3-0.7c0.4,0.3,0.8,0.4,1,0.4c0.5,0,0.7-0.2,0.7-0.6c0-0.3-0.2-0.5-0.7-0.7
		c-0.3-0.2-0.6-0.3-0.7-0.4c-0.1-0.1-0.2-0.2-0.3-0.3c-0.1-0.1-0.2-0.2-0.2-0.3c0-0.1-0.1-0.2-0.1-0.4c0-0.3,0.1-0.6,0.4-0.8
		c0.3-0.2,0.6-0.3,1-0.3c0.3,0,0.7,0.1,1.2,0.3l-0.2,0.7c-0.3-0.2-0.6-0.4-0.9-0.4c-0.2,0-0.3,0-0.4,0.1c-0.1,0.1-0.2,0.2-0.2,0.3
		c0,0.3,0.2,0.5,0.5,0.6l0.5,0.2c0.3,0.1,0.6,0.3,0.7,0.5c0.1,0.2,0.2,0.4,0.2,0.7c0,0.4-0.1,0.7-0.4,0.9c-0.3,0.2-0.6,0.3-1.1,0.3
		C30.2,57.9,29.8,57.7,29.4,57.5L29.4,57.5z"/>
	<path class="st0" d="M36.2,53.9l-0.4,0.5c-0.1-0.1-0.2-0.1-0.4-0.2c-0.2-0.1-0.4-0.1-0.6-0.1c-0.4,0-0.7,0.1-1,0.4
		c-0.2,0.3-0.4,0.7-0.4,1.2c0,0.5,0.1,0.9,0.4,1.1c0.2,0.3,0.6,0.4,1,0.4c0.3,0,0.7-0.1,1-0.4l0.3,0.6c-0.4,0.3-0.9,0.4-1.5,0.4
		c-0.6,0-1-0.2-1.4-0.6c-0.4-0.4-0.6-0.9-0.6-1.6c0-0.7,0.2-1.2,0.6-1.6c0.4-0.4,0.9-0.6,1.6-0.6c0.2,0,0.5,0,0.7,0.1
		C35.9,53.7,36.1,53.8,36.2,53.9L36.2,53.9z"/>
	<path class="st0" d="M39.9,57.8v-2.6c0-0.3-0.1-0.6-0.2-0.7c-0.2-0.2-0.4-0.3-0.7-0.3c-0.2,0-0.4,0.1-0.5,0.2
		c-0.2,0.1-0.3,0.2-0.4,0.4v3.1h-0.7v-5.9h0.7V54c0.1-0.2,0.3-0.3,0.5-0.4c0.2-0.1,0.4-0.2,0.7-0.2c0.4,0,0.8,0.1,1,0.4
		c0.3,0.3,0.4,0.7,0.4,1.2v2.6H39.9L39.9,57.8z"/>
	<path class="st0" d="M44.3,57.3c-0.3,0.4-0.8,0.6-1.4,0.6c-0.3,0-0.6-0.1-0.9-0.4c-0.2-0.2-0.4-0.5-0.4-0.9c0-0.4,0.2-0.8,0.6-1.1
		c0.4-0.3,0.8-0.4,1.4-0.4c0.2,0,0.3,0,0.5,0.1c0-0.7-0.3-1-0.9-1c-0.5,0-0.8,0.1-1.1,0.4L42,53.9c0.1-0.1,0.3-0.2,0.6-0.3
		c0.2-0.1,0.5-0.1,0.7-0.1c0.6,0,1.1,0.1,1.3,0.4c0.3,0.3,0.4,0.7,0.4,1.3v1.5c0,0.4,0.1,0.6,0.3,0.7v0.4c-0.3,0-0.5,0-0.7-0.1
		C44.5,57.6,44.4,57.5,44.3,57.3L44.3,57.3z M44.3,55.7c-0.2-0.1-0.4-0.1-0.5-0.1c-0.4,0-0.7,0.1-0.9,0.3c-0.2,0.2-0.4,0.4-0.4,0.7
		c0,0.4,0.3,0.7,0.8,0.7c0.4,0,0.7-0.2,1-0.5V55.7L44.3,55.7z"/>
	<path class="st0" d="M48.6,52.5c-0.2-0.1-0.3-0.1-0.4-0.1c-0.2,0-0.4,0.1-0.6,0.3c-0.1,0.2-0.2,0.4-0.2,0.7c0,0.1,0,0.1,0,0.2h0.9
		v0.6h-0.9v3.6h-0.7v-3.6H46v-0.6h0.6c0-0.5,0.1-1,0.4-1.3c0.3-0.3,0.6-0.5,1-0.5c0.2,0,0.5,0,0.7,0.1L48.6,52.5L48.6,52.5z"/>
	<path class="st0" d="M49.6,54.2h-0.5v-0.6h0.5v-0.9l0.7-0.3v1.2h1.2v0.6h-1.2v2.1c0,0.4,0.1,0.6,0.2,0.8c0.1,0.1,0.3,0.2,0.6,0.2
		c0.2,0,0.4,0,0.6-0.1l0.1,0.7c-0.3,0.1-0.6,0.1-1,0.1c-0.3,0-0.6-0.1-0.8-0.4c-0.2-0.2-0.3-0.6-0.3-0.9V54.2L49.6,54.2z"/>
	<path class="st0" d="M57.4,34.7c0.4,0.5,1.4,1.4,3.8-0.9c2.4-2.3,1.2-1.3,2.6,1.6c1.4,3,2.2,1.3,2.3,0.7c0.2-1.5-0.3-4.3-0.6-5.5
		c-0.3-1-2-1.4-2.6-0.9c-0.6,0.5-2.3,2.4-3.4,2.8c-1.1,0.4-0.2-0.7-0.6-2.5c-0.3-1.8-1-2.6-1.7-2.3c-0.5,0.2-1.5,1.2-2,1
		c-1.1-0.4-2.6-1.7-5.6-0.2c-5.5,2.8-1.4-2.9-1.4-2.9s4.1-6.4,1.9-9.6c-2.1-3.2-5.8,2.4-6.7,4.2c-1.2,2.3-2.2,5.5-3.2,10.3
		c-0.6,2.8-4,3.8-4.8,2.7c-0.9-1.2-0.7-5.8-3.9-3.8c-3.2,2-3.1,5.9-5.1,1.5c-2-4.4-4-1.5-4.2-1c-0.4,0.7-0.1,2.1-0.7,2.4
		c-0.6,0.4-1.4-0.9-1.9-1c-0.5-0.2-3.7,2.5-5.1,5.3c-2.1,4-6-4.6-5.7-5.2c0.3-0.5,8-11.3,9-12.9c1-1.7,1.7-2.2,2.3-2.3
		c0.6-0.1,8-1.9,13.6-7.6c4.8-4.8,4.3-6.3,3.3-7.6c-0.3-0.4-0.7-0.7-1.3-0.9c-2.9-1-9.5,5.2-10.1,5.8c-1,1-6.8,7.5-7.3,8.4
		c-0.4,0.9-10.6,0.6-10.6,0.6c-1.2,0.6,0.1,1.1,0.1,1.1s4.6,0.6,7.5,0.5c2.5-0.1,1,1.5,0.7,2C13.7,21.1,10,27,8.6,28.6
		c-1.3,1.5-3.7,0.1-4.4-0.1c-0.7-0.1-4.6-0.7-3.6,2.6c0.9,3.2,3.8,1.7,5.1,2c0.4,0.1,1.3,0.5,1.5,1c0.5,1.1,1.1,2.3,1.6,3.1
		c0.9,1.4,4.7,5,7.2,0.1c2.8-5.4,4.8-3.4,5-0.5c0.2,2.9,1.1,1.8,2.2,1.3c1.1-0.5,0.1-2.5,0.2-5.2c0.1-2.7,2.5,1.3,2.5,2.4
		c0,0.8,1.4,0.9,2.9,0.3c1.4-0.6,0-1.7,2-3.6c2-1.9,2.3,2.4,2.8,3.4c0.4,0.9,2.3,2.4,3.5,0.2c1-1.9,3.1-1.3,3.1,1.5
		c0,2.3,1.7,2.8,2.4,2.8c0.2,0,0.5,0,0.9-0.2c1.3-0.5,3.3-3.3,3.3-5.8c0-4.2,6.8-4.9,6.3-3.4c-0.4,1-1.9,4,0,4
		c1.8-0.1,1.1-1.6,2.8-3.5C57.5,29.2,56.8,33.8,57.4,34.7L57.4,34.7z M23.7,9.8c1.3-1.3,2.3-2.2,3.1-3c3.9-3.6,3.8-3.3,4.4-3.7
		c1-0.7,3.4-2,4.1-1.3c0.8,0.7,0.5,2.3-0.8,3.6c-1.3,1.4-5,5.1-8.2,6.9C24.1,13.5,15.4,17.9,23.7,9.8L23.7,9.8z M3.9,31.7
		c-0.4,0.2-1.7-0.8-1.6-1.4c0.1-1.1,1.2,0,2.5,0C6,30.3,4.3,31.5,3.9,31.7L3.9,31.7z M45.7,32.3c-0.4,1.6-1.1,4.1-1.7,4.8
		c-0.4,0.5-1.5,2.1-2.2-0.6c-0.8-2.7,1.1-5,1.1-5s0.8-1.1,1.3-1.1C44.8,30.5,46.1,30.7,45.7,32.3L45.7,32.3z M45.5,27.2
		c-0.3,0.5-0.9-0.6-2,0.8c-0.5,0.6-0.2,1.3-0.7,1.9c-0.6,0.7-1.2,1.3-0.7-0.7c0.5-2,0.2-1.2,0.5-2c0.3-1,1.2-4.3,1.5-5
		c0.4-1,0.6-1.4,1.8-3.2c0,0,0.8-1.1,1-1.2c0.7-0.7,3.1-1.8,1.9,2.6C47.8,23.9,47.1,24.7,45.5,27.2L45.5,27.2z"/>
	<path class="st0" d="M34.8,18.9c-0.2,2.6,1.4,1.7,1.4,1.7c3-1.6,0.6-2.9,0.6-2.9S35,16.3,34.8,18.9L34.8,18.9z"/>
	<path class="st0" d="M77.9,42.9c-0.2-0.4-0.6-0.9-1.8,0.6c-1.8,2.3-1.7,0.9-1.8-0.6c0-0.2-0.2-1.4-1.1-1.9
		c-0.8-0.4-3.9-1.4-3.1-2.1c1.9-1.5,1.9-1.4,2.4-2c0.7-0.8,2.9-3.6,2.7-6.5c-0.2-3.3-4.9-2.9-4.9-2.9c-3.2,0.5-1.8,3.3,0.5,3
		c2.5-0.4,1.9,1.8,1.7,2.3c0,0-0.3,0.7-0.8,1.5c-0.7,1.1-1.8,2.6-2.4,3.3c-0.4,0.5-2.9,2.1-1.1,2.9c3,1.4,5.3,4.8,3.8,5.8
		c-1.1,0.7-9.4,4.5-11.3,5.4c-1.8,0.8-5.8,2.3-5.8,6.2c0,4.2,5.8,4.2,7.1,3.9c3.7-0.6,5.6-2.7,7-4.3c1.2-1.4,4-7.3,4.3-8.3
		c0.3-0.9,1.4-4.1,2.9-4.6C77.9,44.1,78.1,43.5,77.9,42.9L77.9,42.9z M72.6,32.9c0,0,0,0.1,0,0.1L72.6,32.9L72.6,32.9z M71.9,48.6
		c0,0-3.1,6.5-3.5,7.1c-0.5,0.7-2.9,4.1-6.5,4.7c-3.6,0.5-5.4-0.9-5.5-2.7c-0.1-1.7,1.1-2.9,5.1-4.8c8.8-4.3,9.2-4.5,9.2-4.5
		C71.5,48.1,72.7,47.3,71.9,48.6L71.9,48.6z"/>
	<path class="st0" d="M69.3,20.2c-0.8-0.3-3.1,0.9-2.4,2.9C67.7,25,72.9,21.6,69.3,20.2L69.3,20.2z"/>
</g>
</svg>
